<svg xmlns="http://www.w3.org/2000/svg" viewBox="0 0 157.965 138.791"><defs><style>.a{fill:#6c63ff;}.a,.c,.g{opacity:0.1;}.b{fill:#464a5f;}.d{fill:#1bc29e;}.e{fill:#9c9ca1;}.f{fill:#939498;}</style></defs><g transform="translate(-150.295 -279.496)"><path class="a" d="M139.51,356.93v14.74h88.17V356.93Zm8.78,13.81h-7.23V357.86h7.23Zm8.78,0h-7.23V357.86h7.23Zm8.76,0H158.6V357.86h7.23Zm8.78,0h-7.23V357.86h7.23Zm8.77,0h-7.23V357.86h7.23Zm8.78,0h-7.23V357.86h7.23Zm8.78,0h-7.23V357.86h7.23Zm8.77,0h-7.23V357.86h7.23Zm8.77,0h-7.23V357.86h7.23Zm8.77,0H220V357.86h7.23Z" transform="translate(17.33 -64.73)"/><path class="b" d="M80.72,386.74l2.65,4.79,86.23-18.28-3.41-5.42Z" transform="translate(93 -21)"/><path class="b" d="M146.05,435.13,133,357.67a2.47,2.47,0,0,1,2.17-2.87l99-10.56a2.47,2.47,0,0,1,2.71,2.13l9.26,67.84Z" transform="translate(17.33 -64.73)"/><path class="c" d="M146.05,435.13,133,357.67a2.47,2.47,0,0,1,2.17-2.87l99-10.56a2.47,2.47,0,0,1,2.71,2.13l9.26,67.84Z" transform="translate(17.33 -64.73)"/><path class="b" d="M147.57,435.13l-13.06-77.46a2.48,2.48,0,0,1,2.18-2.87l99-10.56a2.47,2.47,0,0,1,2.71,2.13l9.26,67.84Z" transform="translate(17.33 -64.73)"/><path class="d" d="M65.72,317.4l10.72,65.81,89.5-18.41-8.32-58.49Z" transform="translate(92 -21)"/><path class="e" d="M158.53,433.75l-.63-1.26-11.85,2.64,30.19,46.12a3.89,3.89,0,0,0,4.35,1.61l106-30.81a3.9,3.9,0,0,0,1.27-6.86l-41.08-31.11-8.57,2,.37.88Z" transform="translate(17.33 -64.73)"/><path class="c" d="M158.53,433.75l-.63-1.26-11.85,2.64,30.19,46.12a3.89,3.89,0,0,0,4.35,1.61l106-30.81a3.9,3.9,0,0,0,1.27-6.86l-41.08-31.11-8.57,2,.37.88Z" transform="translate(17.33 -64.73)"/><path class="e" d="M160.05,433.75l-.63-1.26-11.85,2.64,30.18,46.12a3.9,3.9,0,0,0,4.36,1.61l106-30.81a3.9,3.9,0,0,0,1.27-6.86L248.3,414.08l-8.57,2,.38.88Z" transform="translate(17.33 -64.73)"/><path class="c" d="M207.33,452.64l34.06-8.85a.68.68,0,0,1,.61.15l15.13,13.73a.66.66,0,0,1-.26,1.12l-36,10.64a.67.67,0,0,1-.69-.21L207,453.71a.67.67,0,0,1,.33-1.07Z" transform="translate(17.33 -64.73)"/><path class="f" d="M208.08,451.89,242.15,443a.66.66,0,0,1,.61.15l15.13,13.72a.66.66,0,0,1-.26,1.12l-36,10.64a.67.67,0,0,1-.69-.21L207.75,453a.65.65,0,0,1,.33-1.11Z" transform="translate(17.33 -64.73)"/><g class="g" transform="translate(93 -21)"><path d="M160.11,440.18l1.53,2.47a.31.31,0,0,0,.31.13l5.16-1.15a.3.3,0,0,0,.18-.46l-1.71-2.38a.3.3,0,0,0-.3-.12l-5,1.07a.29.29,0,0,0-.17.44Z" transform="translate(-75.67 -43.73)"/><path d="M166.85,438.76l1.53,2.47a.3.3,0,0,0,.32.13l5.16-1.15a.3.3,0,0,0,.17-.46l-1.71-2.38a.29.29,0,0,0-.3-.12l-5,1.07a.3.3,0,0,0-.17.44Z" transform="translate(-75.67 -43.73)"/><path d="M173.41,437.35l1.53,2.46a.29.29,0,0,0,.31.13l5.16-1.15a.3.3,0,0,0,.18-.46L178.88,436a.32.32,0,0,0-.3-.12l-5,1.07a.3.3,0,0,0-.17.4Z" transform="translate(-75.67 -43.73)"/><path d="M179.85,436l1.51,2.43a.31.31,0,0,0,.33.14l5.12-1.14a.32.32,0,0,0,.19-.49l-1.68-2.35a.32.32,0,0,0-.33-.12l-4.94,1.06a.32.32,0,0,0-.2.47Z" transform="translate(-75.67 -43.73)"/><path d="M179.33,439.71l1.53,2.46a.29.29,0,0,0,.32.13l5.16-1.15a.29.29,0,0,0,.17-.45l-1.71-2.39a.28.28,0,0,0-.3-.11l-5,1.07a.3.3,0,0,0-.17.44Z" transform="translate(-75.67 -43.73)"/><path d="M172.65,441.13l1.53,2.46a.28.28,0,0,0,.31.13l5.17-1.15a.3.3,0,0,0,.17-.46l-1.71-2.38a.29.29,0,0,0-.3-.11l-5,1.07a.29.29,0,0,0-.17.44Z" transform="translate(-75.67 -43.73)"/><path d="M177,444.15l1.53,2.47a.3.3,0,0,0,.31.13L184,445.6a.3.3,0,0,0,.17-.46l-1.71-2.38a.29.29,0,0,0-.3-.12l-5,1.07a.29.29,0,0,0-.16.44Z" transform="translate(-75.67 -43.73)"/><path d="M183.15,446.8l1.53,2.46a.3.3,0,0,0,.31.14l5.16-1.15a.3.3,0,0,0,.18-.46l-1.71-2.38a.28.28,0,0,0-.3-.12l-5,1.07a.29.29,0,0,0-.17.44Z" transform="translate(-75.67 -43.73)"/><path d="M184.21,451.08l2.47,3.1a.3.3,0,0,0,.31.1l5.2-1.35a.29.29,0,0,0,.15-.47l-2.55-3.12a.29.29,0,0,0-.3-.1l-5.12,1.38a.29.29,0,0,0-.16.46Z" transform="translate(-75.67 -43.73)"/><path d="M191,449.38l2.53,3.19a.31.31,0,0,0,.31.1l6.79-1.88a.29.29,0,0,0,.14-.47l-2.55-3.13a.3.3,0,0,0-.31-.1l-6.76,1.82a.3.3,0,0,0-.15.47Z" transform="translate(-75.67 -43.73)"/><path d="M177.56,452.72l2.47,3.1a.31.31,0,0,0,.31.1l5.2-1.35a.29.29,0,0,0,.15-.47l-2.55-3.1a.28.28,0,0,0-.3-.09l-5.12,1.38a.29.29,0,0,0-.16.43Z" transform="translate(-75.67 -43.73)"/><path d="M170.54,454.55l2.47,3.09a.29.29,0,0,0,.3.1l5.2-1.35a.3.3,0,0,0,.16-.47l-2.56-3.12a.29.29,0,0,0-.3-.1l-5.12,1.38a.29.29,0,0,0-.15.47Z" transform="translate(-75.67 -43.73)"/><path d="M186.31,434.44l1.51,2.43a.31.31,0,0,0,.33.14l5.12-1.14a.32.32,0,0,0,.19-.49L191.78,433a.31.31,0,0,0-.32-.12l-5,1.06a.31.31,0,0,0-.15.5Z" transform="translate(-75.67 -43.73)"/><path d="M185.9,438.22l1.51,2.43a.31.31,0,0,0,.33.14l5.12-1.14a.32.32,0,0,0,.19-.49l-1.68-2.35a.31.31,0,0,0-.32-.12l-5,1.06a.31.31,0,0,0-.15.47Z" transform="translate(-75.67 -43.73)"/><path d="M192.58,433l1.51,2.43a.32.32,0,0,0,.34.14l5.12-1.14a.32.32,0,0,0,.18-.49l-1.68-2.35a.31.31,0,0,0-.32-.12l-4.95,1.06a.31.31,0,0,0-.2.47Z" transform="translate(-75.67 -43.73)"/><path d="M210.92,429l2.13,2.26a.26.26,0,0,0,.24.07l4.57-1.06a.25.25,0,0,0,.12-.43l-2.4-2.26a.24.24,0,0,0-.23-.06l-4.3,1.06a.26.26,0,0,0-.13.42Z" transform="translate(-75.67 -43.73)"/><path d="M216.79,427.66l2.12,2.26a.24.24,0,0,0,.24.07l4.57-1.05a.25.25,0,0,0,.12-.43l-2.4-2.27a.27.27,0,0,0-.23-.06l-4.3,1.06a.25.25,0,0,0-.12.42Z" transform="translate(-75.67 -43.73)"/><path d="M211.05,432.67l2.13,2.26a.24.24,0,0,0,.24.08L218,434a.25.25,0,0,0,.11-.43l-2.39-2.26a.26.26,0,0,0-.24-.07l-4.3,1.07a.25.25,0,0,0-.13.36Z" transform="translate(-75.67 -43.73)"/><path d="M205,434.07l2,2.16a.31.31,0,0,0,.3.09l4.42-1a.32.32,0,0,0,.15-.54l-2.29-2.16a.31.31,0,0,0-.29-.07l-4.17,1a.32.32,0,0,0-.12.52Z" transform="translate(-75.67 -43.73)"/><path d="M209.61,440.88l2,2.16a.33.33,0,0,0,.3.09l4.42-1a.31.31,0,0,0,.15-.53l-2.29-2.16a.34.34,0,0,0-.29-.08l-4.17,1a.32.32,0,0,0-.12.52Z" transform="translate(-75.67 -43.73)"/><path d="M203.34,442.3l2,2.16a.32.32,0,0,0,.3.09l4.42-1a.31.31,0,0,0,.15-.53L208,440.83a.32.32,0,0,0-.29-.08l-4.17,1a.31.31,0,0,0-.2.55Z" transform="translate(-75.67 -43.73)"/><path d="M197,443.87l2,2.16a.31.31,0,0,0,.3.09l4.43-1a.32.32,0,0,0,.14-.54l-2.29-2.16a.3.3,0,0,0-.29-.07l-4.17,1a.31.31,0,0,0-.12.52Z" transform="translate(-75.67 -43.73)"/><path d="M190.24,445.21l2.06,2.19a.32.32,0,0,0,.28.08l4.47-1a.29.29,0,0,0,.13-.5l-2.32-2.19a.29.29,0,0,0-.27-.07l-4.21,1a.29.29,0,0,0-.14.49Z" transform="translate(-75.67 -43.73)"/><path d="M203.27,438.36l2,2.16a.31.31,0,0,0,.29.09l4.43-1a.31.31,0,0,0,.14-.53l-2.28-2.16a.34.34,0,0,0-.29-.08l-4.17,1a.32.32,0,0,0-.12.52Z" transform="translate(-75.67 -43.73)"/><path d="M197.16,439.78l2,2.15a.31.31,0,0,0,.3.1l4.42-1a.31.31,0,0,0,.15-.53l-2.29-2.16a.29.29,0,0,0-.29-.08l-4.17,1a.32.32,0,0,0-.12.52Z" transform="translate(-75.67 -43.73)"/><path d="M190.61,441.16l2,2.16a.29.29,0,0,0,.29.09l4.43-1a.32.32,0,0,0,.14-.54l-2.28-2.16a.31.31,0,0,0-.29-.07l-4.17,1a.3.3,0,0,0-.12.52Z" transform="translate(-75.67 -43.73)"/><path d="M183.9,442.72l2.06,2.19a.32.32,0,0,0,.28.08l4.47-1a.29.29,0,0,0,.14-.5l-2.32-2.19a.32.32,0,0,0-.28-.07l-4.21,1a.3.3,0,0,0-.14.49Z" transform="translate(-75.67 -43.73)"/><path d="M209.58,436.88l2,2.16a.32.32,0,0,0,.3.09l4.42-1a.31.31,0,0,0,.15-.53l-2.29-2.16a.32.32,0,0,0-.29-.08l-4.17,1a.31.31,0,0,0-.12.52Z" transform="translate(-75.67 -43.73)"/><path d="M198.89,435.65l2,2.16a.33.33,0,0,0,.3.09l4.43-1a.31.31,0,0,0,.14-.53l-2.29-2.16a.3.3,0,0,0-.29-.08l-4.16,1a.31.31,0,0,0-.13.52Z" transform="translate(-75.67 -43.73)"/><path d="M222.45,426.23l2.22,2.36a.21.21,0,0,0,.18.06l4.73-1.1a.19.19,0,0,0,.08-.32l-2.51-2.36a.16.16,0,0,0-.17-.05l-4.44,1.1a.18.18,0,0,0-.09.31Z" transform="translate(-75.67 -43.73)"/><path d="M228.15,425l2.23,2.36a.19.19,0,0,0,.18.06l4.72-1.1a.19.19,0,0,0,.09-.32l-2.51-2.37a.18.18,0,0,0-.17,0l-4.45,1.1a.18.18,0,0,0-.09.27Z" transform="translate(-75.67 -43.73)"/><path d="M234,423.62l2,2.19a.17.17,0,0,0,.18.06l4.41-1.2a.2.2,0,0,0,.07-.33l-2.28-1.91a.18.18,0,0,0-.16,0l-4.16.92a.19.19,0,0,0-.06.27Z" transform="translate(-75.67 -43.73)"/><path d="M240.16,425.66l2,2.2a.2.2,0,0,0,.19.06l4.4-1.2a.19.19,0,0,0,.07-.33l-2.27-1.91a.16.16,0,0,0-.16,0l-4.16.92a.18.18,0,0,0-.07.26Z" transform="translate(-75.67 -43.73)"/><path d="M239.42,429.66l1.93,2.08a.23.23,0,0,0,.25.07l4.24-1.15a.26.26,0,0,0,.1-.44l-2.16-1.81a.21.21,0,0,0-.21-.06l-4,.89a.25.25,0,0,0-.15.42Z" transform="translate(-75.67 -43.73)"/><path d="M234.41,434.73l1.93,2.09a.25.25,0,0,0,.25.07l4.24-1.16a.25.25,0,0,0,.1-.43l-2.16-1.82a.23.23,0,0,0-.21-.05l-4,.88a.25.25,0,0,0-.15.42Z" transform="translate(-75.67 -43.73)"/><path d="M228.39,436.31l1.93,2.08a.23.23,0,0,0,.25.07l4.24-1.15a.26.26,0,0,0,.1-.44l-2.16-1.81a.21.21,0,0,0-.21-.06l-4,.89a.25.25,0,0,0-.15.42Z" transform="translate(-75.67 -43.73)"/><path d="M240.08,433.25l1.93,2.09a.28.28,0,0,0,.25.07l4.24-1.16a.25.25,0,0,0,.1-.44L244.45,432a.29.29,0,0,0-.22-.06l-4,.89a.26.26,0,0,0-.15.42Z" transform="translate(-75.67 -43.73)"/><path d="M239.1,437.75l2.91,2.62a.28.28,0,0,0,.24.05l4.21-1.19a.25.25,0,0,0,.1-.43l-3.14-2.75a.25.25,0,0,0-.25-.05l-4,1.33a.24.24,0,0,0-.07.42Z" transform="translate(-75.67 -43.73)"/><path d="M228.91,428.5l2,2.2a.19.19,0,0,0,.19.05l4.4-1.2a.18.18,0,0,0,.07-.32l-2.27-1.92a.24.24,0,0,0-.16,0l-4.16.92a.18.18,0,0,0-.07.27Z" transform="translate(-75.67 -43.73)"/><path d="M223.22,429.91l1.93,2.08a.26.26,0,0,0,.25.08l4.24-1.16a.26.26,0,0,0,.1-.44l-2.15-1.81a.29.29,0,0,0-.22-.06l-4,.89a.26.26,0,0,0-.15.42Z" transform="translate(-75.67 -43.73)"/><path d="M222.05,433.94,224,436a.24.24,0,0,0,.25.07l4.25-1.16a.25.25,0,0,0,.09-.43l-2.15-1.82a.25.25,0,0,0-.22-.05l-4,.88a.26.26,0,0,0-.17.45Z" transform="translate(-75.67 -43.73)"/><path d="M216.06,435.39l1.93,2.09a.26.26,0,0,0,.26.07l4.24-1.16a.25.25,0,0,0,.09-.43l-2.15-1.82a.25.25,0,0,0-.22-.05l-4,.88a.26.26,0,0,0-.15.42Z" transform="translate(-75.67 -43.73)"/><path d="M217.14,431.26l1.93,2.09a.23.23,0,0,0,.25.07l4.24-1.16a.25.25,0,0,0,.1-.43L221.5,430a.23.23,0,0,0-.21-.05l-4,.89a.24.24,0,0,0-.15.42Z" transform="translate(-75.67 -43.73)"/><path d="M222.15,437.66l1.93,2.09a.25.25,0,0,0,.25.07l4.24-1.16a.25.25,0,0,0,.1-.43l-2.16-1.82a.23.23,0,0,0-.21-.05l-4,.88a.25.25,0,0,0-.15.42Z" transform="translate(-75.67 -43.73)"/><path d="M216.26,439.25l1.84,2a.29.29,0,0,0,.31.09l4.09-1.11a.32.32,0,0,0,.12-.55l-2-1.72a.32.32,0,0,0-.27-.06l-3.88.85a.32.32,0,0,0-.21.5Z" transform="translate(-75.67 -43.73)"/><path d="M234.71,427.05l2,2.2a.19.19,0,0,0,.19.05l4.4-1.2a.18.18,0,0,0,.07-.32l-2.27-1.92a.24.24,0,0,0-.16,0l-4.17.92a.19.19,0,0,0-.06.27Z" transform="translate(-75.67 -43.73)"/><path d="M233.9,431l1.93,2.09a.26.26,0,0,0,.25.07l4.25-1.16a.25.25,0,0,0,.09-.43l-2.15-1.82a.25.25,0,0,0-.22-.05l-4,.88a.26.26,0,0,0-.15.42Z" transform="translate(-75.67 -43.73)"/><path d="M228.14,432.59l1.92,2.08a.29.29,0,0,0,.26.08l4.24-1.16a.26.26,0,0,0,.1-.44l-2.16-1.81a.29.29,0,0,0-.22-.06l-4,.89a.25.25,0,0,0-.14.42Z" transform="translate(-75.67 -43.73)"/><path d="M204.94,430.31l2.12,2.26a.27.27,0,0,0,.24.07l4.57-1.06a.25.25,0,0,0,.12-.43l-2.4-2.26a.24.24,0,0,0-.23-.06l-4.3,1.06a.25.25,0,0,0-.12.42Z" transform="translate(-75.67 -43.73)"/><path d="M198.83,431.8l2,2.16a.31.31,0,0,0,.3.09l4.42-1a.32.32,0,0,0,.15-.54l-2.29-2.16a.31.31,0,0,0-.29-.07l-4.17,1a.31.31,0,0,0-.12.52Z" transform="translate(-75.67 -43.73)"/><path d="M192.3,436.87l1.51,2.42a.3.3,0,0,0,.33.14l5.12-1.14a.31.31,0,0,0,.19-.49l-1.69-2.34a.32.32,0,0,0-.32-.13l-4.94,1.06a.32.32,0,0,0-.2.48Z" transform="translate(-75.67 -43.73)"/><path d="M158.79,437.77l5.05-1.17a.31.31,0,0,1,.3.11l.89,1.17a.29.29,0,0,1-.17.46l-5.23,1.22a.29.29,0,0,1-.32-.14l-.71-1.22a.29.29,0,0,1,.19-.43Z" transform="translate(-75.67 -43.73)"/><path d="M165.74,436.26l5-1.17a.28.28,0,0,1,.3.11l.89,1.16a.3.3,0,0,1-.17.47l-5.23,1.22a.3.3,0,0,1-.32-.14l-.71-1.22a.29.29,0,0,1,.24-.43Z" transform="translate(-75.67 -43.73)"/><path d="M172.45,434.81l5.05-1.16a.29.29,0,0,1,.3.1l.89,1.17a.29.29,0,0,1-.17.46l-5.23,1.22a.28.28,0,0,1-.32-.13l-.71-1.22a.3.3,0,0,1,.19-.44Z" transform="translate(-75.67 -43.73)"/><path d="M179,433.33l5.06-1.17a.28.28,0,0,1,.3.11l.88,1.16a.3.3,0,0,1-.16.47l-5.24,1.21a.3.3,0,0,1-.32-.13l-.71-1.22a.3.3,0,0,1,.19-.43Z" transform="translate(-75.67 -43.73)"/><path d="M185.64,431.85l5-1.16a.33.33,0,0,1,.32.12l.86,1.13a.32.32,0,0,1-.18.5l-5.19,1.21a.31.31,0,0,1-.34-.15l-.69-1.18a.32.32,0,0,1,.22-.47Z" transform="translate(-75.67 -43.73)"/><path d="M192.09,430.51l5-1.16a.31.31,0,0,1,.32.11l.86,1.14a.31.31,0,0,1-.18.49l-5.19,1.21a.32.32,0,0,1-.34-.15l-.69-1.18a.32.32,0,0,1,.22-.46Z" transform="translate(-75.67 -43.73)"/><path d="M198.41,429.19l4.63-1.12a.31.31,0,0,1,.3.09l.9.94a.32.32,0,0,1-.15.52l-4.58,1.15a.3.3,0,0,1-.3-.08l-1-1a.32.32,0,0,1,.2-.5Z" transform="translate(-75.67 -43.73)"/><path d="M204.54,427.78l4.77-1.16a.26.26,0,0,1,.25.07l1,1.05a.24.24,0,0,1-.12.41l-4.71,1.19a.26.26,0,0,1-.24-.07l-1.06-1.07a.25.25,0,0,1,.11-.42Z" transform="translate(-75.67 -43.73)"/><path d="M210.67,426.34l4.77-1.16a.22.22,0,0,1,.24.07l1,1a.25.25,0,0,1-.12.42l-4.71,1.19a.26.26,0,0,1-.24-.07l-1-1.07a.25.25,0,0,1,.06-.38Z" transform="translate(-75.67 -43.73)"/><path d="M216.79,425.08l4.77-1.16a.27.27,0,0,1,.24.07l1,1.05a.26.26,0,0,1-.13.42L218,426.64a.26.26,0,0,1-.24-.06l-1.05-1.07a.26.26,0,0,1,.08-.43Z" transform="translate(-75.67 -43.73)"/><path d="M222.59,423.69l4.91-1.19a.17.17,0,0,1,.18.05l1.1,1.15a.18.18,0,0,1-.09.31l-4.85,1.22a.17.17,0,0,1-.18-.05L222.5,424a.19.19,0,0,1,.09-.31Z" transform="translate(-75.67 -43.73)"/><path d="M228.45,422.44l4.92-1.2a.18.18,0,0,1,.17.06l1.1,1.15a.18.18,0,0,1-.09.31L229.7,424a.17.17,0,0,1-.18-.05l-1.16-1.18a.19.19,0,0,1,.09-.33Z" transform="translate(-75.67 -43.73)"/><path d="M234.29,421.1l4.55-1a.2.2,0,0,1,.19.07l.88,1.08a.18.18,0,0,1-.1.29l-4.27,1.13a.17.17,0,0,1-.18-.05l-1.16-1.17a.19.19,0,0,1,.09-.35Z" transform="translate(-75.67 -43.73)"/><path d="M239.87,419.82l4.55-1a.18.18,0,0,1,.19.06l.87,1.08a.19.19,0,0,1-.09.3l-4.27,1.13a.25.25,0,0,1-.19-.05l-1.15-1.18a.19.19,0,0,1,.09-.34Z" transform="translate(-75.67 -43.73)"/><path d="M162.33,443.79l1.68,2.39a.28.28,0,0,0,.3.12l8.75-2.05a.29.29,0,0,0,.17-.46l-1.86-2.45a.29.29,0,0,0-.3-.1l-8.57,2.09a.3.3,0,0,0-.17.46Z" transform="translate(-75.67 -43.73)"/><path d="M165,447l1.67,2.66a.3.3,0,0,0,.32.13l10.57-2.51a.29.29,0,0,0,.16-.47l-2.09-2.59a.29.29,0,0,0-.3-.1l-10.15,2.44a.29.29,0,0,0-.18.44Z" transform="translate(-75.67 -43.73)"/><path d="M167.37,450.52l2,2.89a.29.29,0,0,0,.31.12l14-3.46a.3.3,0,0,0,.16-.47l-2.25-2.89a.31.31,0,0,0-.3-.11l-13.84,3.47a.29.29,0,0,0-.08.45Z" transform="translate(-75.67 -43.73)"/><path d="M199.42,447.36l2.56,3.09a.3.3,0,0,0,.31.1l30.81-7.69a.31.31,0,0,0,.14-.52l-3.14-3.13a.33.33,0,0,0-.3-.08l-30.22,7.73a.31.31,0,0,0-.16.5Z" transform="translate(-75.67 -43.73)"/><path d="M231.22,439.39l3,3a.26.26,0,0,0,.25.07l6.31-1.69a.25.25,0,0,0,.11-.42l-3.13-3.07a.26.26,0,0,0-.24-.06L231.33,439a.26.26,0,0,0-.11.39Z" transform="translate(-75.67 -43.73)"/><path d="M246.46,437.49l1.38,1.45a.17.17,0,0,0,.18.05l4.67-1.26a.18.18,0,0,0,.08-.31l-1.66-1.57a.2.2,0,0,0-.18,0l-4.39,1.37a.19.19,0,0,0-.08.27Z" transform="translate(-75.67 -43.73)"/><path d="M250.44,434.37l1.64,1.72a.19.19,0,0,0,.2.05l4.29-1.49a.18.18,0,0,0,.07-.31L255,432.89a.17.17,0,0,0-.17,0l-4.33,1.21a.19.19,0,0,0-.06.27Z" transform="translate(-75.67 -43.73)"/><path d="M253.61,437.35l-1.18-1a.19.19,0,0,1,0-.32l4.28-1.48a.17.17,0,0,1,.19,0l1.34,1.29a.19.19,0,0,1-.09.32l-4.43,1.15A.18.18,0,0,1,253.61,437.35Z" transform="translate(-75.67 -43.73)"/><path d="M258,434.71c.37.35,1,1.06,1.26,1.3a.22.22,0,0,0,.19.05l4.45-1.21a.19.19,0,0,0,.08-.32l-1.58-1.42a.19.19,0,0,0-.19,0l-4.13,1.33a.18.18,0,0,0-.08.27Z" transform="translate(-75.67 -43.73)"/><path d="M245.5,431.89l2.38,2.3a.18.18,0,0,0,.18.05l11.48-3a.19.19,0,0,0,.08-.32l-2.79-2.31a.17.17,0,0,0-.17,0l-11.08,3a.18.18,0,0,0-.08.28Z" transform="translate(-75.67 -43.73)"/><path d="M244.72,428.35l2.46,2.19a.2.2,0,0,0,.17,0l8.64-2a.19.19,0,0,0,.07-.33l-2.83-2.37a.16.16,0,0,0-.16,0L244.8,428a.19.19,0,0,0-.08.35Z" transform="translate(-75.67 -43.73)"/><path d="M245.51,424.58l2.33,2.08a.18.18,0,0,0,.17,0l4.43-1a.19.19,0,0,0,.08-.33L249.76,423a.17.17,0,0,0-.17,0l-4,1.28a.19.19,0,0,0-.08.3Z" transform="translate(-75.67 -43.73)"/><path d="M239.44,422.51l2.25,2.05a.21.21,0,0,0,.17,0l7-1.67a.18.18,0,0,0,.07-.32l-2.68-2.25a.22.22,0,0,0-.17,0l-6.61,1.87a.19.19,0,0,0-.03.32Z" transform="translate(-75.67 -43.73)"/></g><path class="b" d="M160.11,439.43l1.53,2.46a.29.29,0,0,0,.31.13l5.16-1.15a.3.3,0,0,0,.18-.46L165.58,438a.32.32,0,0,0-.3-.12l-5,1.07a.3.3,0,0,0-.17.48Z" transform="translate(17.33 -64.73)"/><path class="b" d="M166.85,438l1.53,2.46a.29.29,0,0,0,.32.13l5.16-1.15A.3.3,0,0,0,174,439l-1.71-2.38a.29.29,0,0,0-.3-.11l-5,1.07a.3.3,0,0,0-.14.42Z" transform="translate(17.33 -64.73)"/><path class="b" d="M173.41,436.59l1.53,2.46a.28.28,0,0,0,.31.13l5.16-1.15a.29.29,0,0,0,.18-.45l-1.71-2.39a.29.29,0,0,0-.3-.11l-5,1.07a.29.29,0,0,0-.17.44Z" transform="translate(17.33 -64.73)"/><path class="b" d="M179.85,435.2l1.51,2.42a.3.3,0,0,0,.33.14l5.12-1.14a.31.31,0,0,0,.19-.49l-1.68-2.34a.35.35,0,0,0-.33-.13l-4.94,1.06a.32.32,0,0,0-.2.48Z" transform="translate(17.33 -64.73)"/><path class="b" d="M179.33,439l1.53,2.47a.32.32,0,0,0,.32.13l5.16-1.15a.3.3,0,0,0,.17-.46l-1.71-2.38a.29.29,0,0,0-.3-.12l-5,1.07a.3.3,0,0,0-.17.44Z" transform="translate(17.33 -64.73)"/><path class="b" d="M172.65,440.37l1.53,2.46a.3.3,0,0,0,.31.14l5.17-1.15a.3.3,0,0,0,.17-.46L178.12,439a.29.29,0,0,0-.3-.12l-5,1.07a.29.29,0,0,0-.17.42Z" transform="translate(17.33 -64.73)"/><path class="b" d="M177,443.4l1.53,2.46a.28.28,0,0,0,.31.13l5.17-1.15a.3.3,0,0,0,.17-.46L182.47,442a.29.29,0,0,0-.3-.11l-5,1.07a.29.29,0,0,0-.17.44Z" transform="translate(17.33 -64.73)"/><path class="b" d="M183.15,446l1.53,2.47a.29.29,0,0,0,.31.13l5.16-1.15a.3.3,0,0,0,.18-.46l-1.71-2.38a.3.3,0,0,0-.3-.12l-5,1.07a.29.29,0,0,0-.17.44Z" transform="translate(17.33 -64.73)"/><path class="b" d="M184.21,450.33l2.47,3.09a.3.3,0,0,0,.31.1l5.2-1.35a.29.29,0,0,0,.15-.47l-2.55-3.12a.29.29,0,0,0-.3-.1l-5.12,1.38a.3.3,0,0,0-.16.47Z" transform="translate(17.33 -64.73)"/><path class="b" d="M191,448.62l2.53,3.19a.31.31,0,0,0,.31.1l6.79-1.88a.29.29,0,0,0,.14-.47l-2.55-3.12a.3.3,0,0,0-.31-.1l-6.76,1.82a.29.29,0,0,0-.15.46Z" transform="translate(17.33 -64.73)"/><path class="b" d="M177.56,452l2.47,3.09a.31.31,0,0,0,.31.1l5.2-1.35a.29.29,0,0,0,.15-.47l-2.55-3.12a.29.29,0,0,0-.3-.1l-5.12,1.38a.3.3,0,0,0-.16.47Z" transform="translate(17.33 -64.73)"/><path class="b" d="M170.54,453.79l2.47,3.1a.29.29,0,0,0,.3.1l5.2-1.35a.3.3,0,0,0,.16-.47l-2.56-3.12a.29.29,0,0,0-.3-.1l-5.12,1.38a.29.29,0,0,0-.15.46Z" transform="translate(17.33 -64.73)"/><path class="b" d="M186.31,433.68l1.51,2.43a.31.31,0,0,0,.33.14l5.12-1.14a.32.32,0,0,0,.19-.49l-1.68-2.35a.31.31,0,0,0-.32-.12l-5,1.06a.32.32,0,0,0-.15.47Z" transform="translate(17.33 -64.73)"/><path class="b" d="M185.9,437.46l1.51,2.43a.31.31,0,0,0,.33.14l5.12-1.14a.31.31,0,0,0,.19-.49l-1.68-2.34a.32.32,0,0,0-.32-.13l-5,1.06a.32.32,0,0,0-.15.47Z" transform="translate(17.33 -64.73)"/><path class="b" d="M192.58,432.26l1.51,2.43a.32.32,0,0,0,.34.14l5.12-1.14a.32.32,0,0,0,.18-.49l-1.68-2.34a.32.32,0,0,0-.32-.13l-4.95,1.06a.32.32,0,0,0-.2.47Z" transform="translate(17.33 -64.73)"/><path class="b" d="M210.92,428.26l2.13,2.26a.24.24,0,0,0,.24.07l4.57-1.06a.25.25,0,0,0,.12-.42l-2.4-2.27a.24.24,0,0,0-.23-.06l-4.3,1.06a.26.26,0,0,0-.13.42Z" transform="translate(17.33 -64.73)"/><path class="b" d="M216.79,426.91l2.12,2.25a.25.25,0,0,0,.24.08l4.57-1.06a.25.25,0,0,0,.12-.43l-2.4-2.26a.24.24,0,0,0-.23-.06l-4.3,1.06a.25.25,0,0,0-.12.42Z" transform="translate(17.33 -64.73)"/><path class="b" d="M211.05,431.92l2.13,2.26a.26.26,0,0,0,.24.07l4.57-1.06a.25.25,0,0,0,.11-.43l-2.39-2.26a.26.26,0,0,0-.24-.06l-4.3,1.06a.26.26,0,0,0-.12.42Z" transform="translate(17.33 -64.73)"/><path class="b" d="M205,433.32l2,2.15a.29.29,0,0,0,.3.09l4.42-1a.31.31,0,0,0,.15-.53l-2.29-2.16a.29.29,0,0,0-.29-.08l-4.17,1a.32.32,0,0,0-.12.53Z" transform="translate(17.33 -64.73)"/><path class="b" d="M209.61,440.12l2,2.16a.31.31,0,0,0,.3.09l4.42-1a.32.32,0,0,0,.15-.54l-2.29-2.16a.31.31,0,0,0-.29-.07l-4.17,1a.31.31,0,0,0-.12.52Z" transform="translate(17.33 -64.73)"/><path class="b" d="M203.34,441.54l2,2.16a.3.3,0,0,0,.3.09l4.42-1a.32.32,0,0,0,.15-.54L208,440.07a.31.31,0,0,0-.29-.07l-4.17,1a.31.31,0,0,0-.2.54Z" transform="translate(17.33 -64.73)"/><path class="b" d="M197,443.12l2,2.16a.33.33,0,0,0,.3.09l4.43-1a.31.31,0,0,0,.14-.53l-2.29-2.16a.31.31,0,0,0-.29-.08l-4.17,1a.32.32,0,0,0-.12.52Z" transform="translate(17.33 -64.73)"/><path class="b" d="M190.24,444.45l2.06,2.19a.29.29,0,0,0,.28.08l4.47-1a.29.29,0,0,0,.13-.5L194.86,443a.3.3,0,0,0-.27-.08l-4.21,1a.29.29,0,0,0-.14.53Z" transform="translate(17.33 -64.73)"/><path class="b" d="M203.27,437.6l2,2.16a.29.29,0,0,0,.29.09l4.43-1a.32.32,0,0,0,.14-.54l-2.28-2.16a.31.31,0,0,0-.29-.07l-4.17,1a.32.32,0,0,0-.12.52Z" transform="translate(17.33 -64.73)"/><path class="b" d="M197.16,439l2,2.16a.33.33,0,0,0,.3.09l4.42-1a.31.31,0,0,0,.15-.53l-2.29-2.16a.34.34,0,0,0-.29-.08l-4.17,1a.32.32,0,0,0-.12.52Z" transform="translate(17.33 -64.73)"/><path class="b" d="M190.61,440.41l2,2.16a.31.31,0,0,0,.29.09l4.43-1a.31.31,0,0,0,.14-.53l-2.28-2.16a.32.32,0,0,0-.29-.08l-4.17,1a.31.31,0,0,0-.12.52Z" transform="translate(17.33 -64.73)"/><path class="b" d="M183.9,442l2.06,2.19a.27.27,0,0,0,.28.08l4.47-1a.29.29,0,0,0,.14-.5l-2.32-2.19a.32.32,0,0,0-.28-.08l-4.21,1a.3.3,0,0,0-.14.5Z" transform="translate(17.33 -64.73)"/><path class="b" d="M209.58,436.12l2,2.16a.32.32,0,0,0,.3.09l4.42-1a.31.31,0,0,0,.15-.53l-2.29-2.16a.34.34,0,0,0-.29-.08l-4.17,1a.31.31,0,0,0-.12.52Z" transform="translate(17.33 -64.73)"/><path class="b" d="M198.89,434.89l2,2.16a.31.31,0,0,0,.3.09l4.43-1a.32.32,0,0,0,.14-.54l-2.29-2.16a.3.3,0,0,0-.29-.07l-4.16,1a.32.32,0,0,0-.13.52Z" transform="translate(17.33 -64.73)"/><path class="b" d="M222.45,425.47l2.22,2.37a.18.18,0,0,0,.18.05l4.73-1.09a.19.19,0,0,0,.08-.32l-2.51-2.37a.21.21,0,0,0-.17-.05l-4.44,1.1a.19.19,0,0,0-.09.31Z" transform="translate(17.33 -64.73)"/><path class="b" d="M228.15,424.21l2.23,2.37a.19.19,0,0,0,.18.05l4.72-1.09a.19.19,0,0,0,.09-.32l-2.51-2.37a.18.18,0,0,0-.17-.05l-4.45,1.1a.18.18,0,0,0-.09.31Z" transform="translate(17.33 -64.73)"/><path class="b" d="M234,422.86l2,2.2a.18.18,0,0,0,.18.05l4.41-1.2a.19.19,0,0,0,.07-.32l-2.28-1.92a.18.18,0,0,0-.16,0l-4.16.92a.19.19,0,0,0-.06.27Z" transform="translate(17.33 -64.73)"/><path class="b" d="M240.16,424.91l2,2.2a.19.19,0,0,0,.19.05l4.4-1.2a.18.18,0,0,0,.07-.32l-2.27-1.92a.19.19,0,0,0-.16,0l-4.16.92a.19.19,0,0,0-.07.27Z" transform="translate(17.33 -64.73)"/><path class="b" d="M239.42,428.9l1.93,2.09a.25.25,0,0,0,.25.07l4.24-1.16a.25.25,0,0,0,.1-.43l-2.16-1.82a.23.23,0,0,0-.21,0l-4,.88a.26.26,0,0,0-.15.37Z" transform="translate(17.33 -64.73)"/><path class="b" d="M234.41,434l1.93,2.09a.23.23,0,0,0,.25.07l4.24-1.15a.26.26,0,0,0,.1-.44l-2.16-1.82a.23.23,0,0,0-.21-.05l-4,.89a.24.24,0,0,0-.15.41Z" transform="translate(17.33 -64.73)"/><path class="b" d="M228.39,435.55l1.93,2.09a.28.28,0,0,0,.25.07l4.24-1.16a.26.26,0,0,0,.1-.44l-2.16-1.81a.23.23,0,0,0-.21-.05l-4,.88a.26.26,0,0,0-.15.42Z" transform="translate(17.33 -64.73)"/><path class="b" d="M240.08,432.49l1.93,2.09a.23.23,0,0,0,.25.07l4.24-1.16a.25.25,0,0,0,.1-.43l-2.15-1.82a.25.25,0,0,0-.22-.05l-4,.89a.25.25,0,0,0-.15.41Z" transform="translate(17.33 -64.73)"/><path class="b" d="M239.1,437l2.91,2.61a.23.23,0,0,0,.24.05l4.21-1.19a.25.25,0,0,0,.1-.43l-3.14-2.75a.25.25,0,0,0-.25-.05l-4,1.33a.25.25,0,0,0-.07.43Z" transform="translate(17.33 -64.73)"/><path class="b" d="M228.91,427.74l2,2.2a.2.2,0,0,0,.19.06l4.4-1.2a.19.19,0,0,0,.07-.33l-2.27-1.91a.17.17,0,0,0-.16,0l-4.16.92a.18.18,0,0,0-.07.26Z" transform="translate(17.33 -64.73)"/><path class="b" d="M223.22,429.15l1.93,2.09a.25.25,0,0,0,.25.07l4.24-1.16a.25.25,0,0,0,.1-.43l-2.15-1.82a.25.25,0,0,0-.22,0l-4,.88a.26.26,0,0,0-.15.37Z" transform="translate(17.33 -64.73)"/><path class="b" d="M222.05,433.19l1.93,2.08a.24.24,0,0,0,.25.07l4.25-1.15a.26.26,0,0,0,.09-.44l-2.15-1.81a.23.23,0,0,0-.22-.06l-4,.89a.25.25,0,0,0-.15.42Z" transform="translate(17.33 -64.73)"/><path class="b" d="M216.06,434.64l1.93,2.08a.26.26,0,0,0,.26.07l4.24-1.15a.26.26,0,0,0,.09-.44l-2.15-1.82a.25.25,0,0,0-.22-.05l-4,.89a.26.26,0,0,0-.15.42Z" transform="translate(17.33 -64.73)"/><path class="b" d="M217.14,430.51l1.93,2.08a.26.26,0,0,0,.25.08l4.24-1.16a.26.26,0,0,0,.1-.44l-2.16-1.81a.27.27,0,0,0-.21-.06l-4,.89a.25.25,0,0,0-.15.42Z" transform="translate(17.33 -64.73)"/><path class="b" d="M222.15,436.9l1.93,2.09a.23.23,0,0,0,.25.07l4.24-1.15a.26.26,0,0,0,.1-.44l-2.16-1.82a.23.23,0,0,0-.21,0l-4,.89a.24.24,0,0,0-.15.36Z" transform="translate(17.33 -64.73)"/><path class="b" d="M216.26,438.5l1.84,2a.31.31,0,0,0,.31.09l4.09-1.12a.31.31,0,0,0,.12-.54l-2-1.72a.29.29,0,0,0-.27-.07l-3.88.86a.32.32,0,0,0-.21.5Z" transform="translate(17.33 -64.73)"/><path class="b" d="M234.71,426.3l2,2.19a.2.2,0,0,0,.19.06l4.4-1.2a.19.19,0,0,0,.07-.33l-2.27-1.91a.17.17,0,0,0-.16,0l-4.17.92a.18.18,0,0,0-.06.27Z" transform="translate(17.33 -64.73)"/><path class="b" d="M233.9,430.25l1.93,2.09a.24.24,0,0,0,.25.07l4.25-1.15a.26.26,0,0,0,.09-.44L238.27,429a.25.25,0,0,0-.22-.05l-4,.89a.25.25,0,0,0-.15.41Z" transform="translate(17.33 -64.73)"/><path class="b" d="M228.14,431.83l1.92,2.09a.28.28,0,0,0,.26.07l4.24-1.16a.25.25,0,0,0,.1-.43l-2.16-1.82a.25.25,0,0,0-.22-.05l-4,.88a.25.25,0,0,0-.14.42Z" transform="translate(17.33 -64.73)"/><path class="b" d="M204.94,429.55l2.12,2.26a.25.25,0,0,0,.24.08l4.57-1.06a.25.25,0,0,0,.12-.43l-2.4-2.26a.25.25,0,0,0-.23-.07l-4.3,1.07a.24.24,0,0,0-.12.41Z" transform="translate(17.33 -64.73)"/><path class="b" d="M198.83,431.05l2,2.15a.31.31,0,0,0,.3.1l4.42-1a.31.31,0,0,0,.15-.53l-2.29-2.16a.29.29,0,0,0-.29-.08l-4.17,1a.32.32,0,0,0-.12.52Z" transform="translate(17.33 -64.73)"/><path class="b" d="M192.3,436.11l1.51,2.43a.31.31,0,0,0,.33.14l5.12-1.14a.32.32,0,0,0,.19-.49l-1.69-2.35a.3.3,0,0,0-.32-.12l-4.94,1.06a.31.31,0,0,0-.2.47Z" transform="translate(17.33 -64.73)"/><path class="b" d="M158.79,437l5.05-1.17a.31.31,0,0,1,.3.11l.89,1.17a.29.29,0,0,1-.17.46l-5.23,1.22a.28.28,0,0,1-.32-.14l-.71-1.21a.3.3,0,0,1,.19-.44Z" transform="translate(17.33 -64.73)"/><path class="b" d="M165.74,435.5l5-1.17a.31.31,0,0,1,.3.11l.89,1.17a.29.29,0,0,1-.17.46l-5.23,1.22a.29.29,0,0,1-.32-.14l-.71-1.22a.29.29,0,0,1,.24-.43Z" transform="translate(17.33 -64.73)"/><path class="b" d="M172.45,434.06l5.05-1.17a.29.29,0,0,1,.3.11l.89,1.16a.3.3,0,0,1-.17.47l-5.23,1.22a.29.29,0,0,1-.32-.14l-.71-1.22a.29.29,0,0,1,.19-.43Z" transform="translate(17.33 -64.73)"/><path class="b" d="M179,432.57l5-1.17a.31.31,0,0,1,.3.11l.88,1.17a.29.29,0,0,1-.16.46l-5.24,1.22a.3.3,0,0,1-.32-.14l-.71-1.22a.3.3,0,0,1,.25-.43Z" transform="translate(17.33 -64.73)"/><path class="b" d="M185.64,431.1l5-1.16a.33.33,0,0,1,.32.11l.86,1.14a.31.31,0,0,1-.18.49l-5.19,1.21a.31.31,0,0,1-.34-.15l-.69-1.18a.31.31,0,0,1,.22-.46Z" transform="translate(17.33 -64.73)"/><path class="b" d="M192.09,429.75l5-1.16a.31.31,0,0,1,.32.12l.86,1.13a.31.31,0,0,1-.18.49l-5.19,1.21a.32.32,0,0,1-.34-.15l-.69-1.18a.32.32,0,0,1,.22-.46Z" transform="translate(17.33 -64.73)"/><path class="b" d="M198.41,428.44l4.63-1.13a.33.33,0,0,1,.3.09l.9,1a.32.32,0,0,1-.15.52L199.51,430a.3.3,0,0,1-.3-.08l-1-1a.31.31,0,0,1,.2-.48Z" transform="translate(17.33 -64.73)"/><path class="b" d="M204.54,427l4.77-1.16a.29.29,0,0,1,.25.07l1,1.05a.25.25,0,0,1-.12.42l-4.71,1.18a.24.24,0,0,1-.24-.07l-1.06-1.07a.25.25,0,0,1,.11-.42Z" transform="translate(17.33 -64.73)"/><path class="b" d="M210.67,425.58l4.77-1.16a.27.27,0,0,1,.24.07l1,1.05a.25.25,0,0,1-.12.42l-4.71,1.18a.24.24,0,0,1-.24-.07l-1-1.07a.25.25,0,0,1,.06-.42Z" transform="translate(17.33 -64.73)"/><path class="b" d="M216.79,424.33l4.77-1.16a.24.24,0,0,1,.24.07l1,1.05a.25.25,0,0,1-.13.41L218,425.89a.27.27,0,0,1-.24-.07l-1.05-1.07a.25.25,0,0,1,.08-.42Z" transform="translate(17.33 -64.73)"/><path class="b" d="M222.59,422.94l4.91-1.2a.17.17,0,0,1,.18.05l1.1,1.16a.19.19,0,0,1-.09.31l-4.85,1.22a.22.22,0,0,1-.18-.05l-1.16-1.18a.19.19,0,0,1,.09-.31Z" transform="translate(17.33 -64.73)"/><path class="b" d="M228.45,421.68l4.92-1.19a.16.16,0,0,1,.17.05l1.1,1.15a.19.19,0,0,1-.09.32l-4.85,1.21a.17.17,0,0,1-.18-.05L228.36,422a.19.19,0,0,1,.09-.32Z" transform="translate(17.33 -64.73)"/><path class="b" d="M234.29,420.34l4.55-1a.18.18,0,0,1,.19.06l.88,1.08a.19.19,0,0,1-.1.3l-4.27,1.13a.22.22,0,0,1-.18-.05l-1.16-1.18a.19.19,0,0,1,.09-.34Z" transform="translate(17.33 -64.73)"/><path class="b" d="M239.87,419.06l4.55-1a.2.2,0,0,1,.19.06l.87,1.08a.18.18,0,0,1-.09.3l-4.27,1.13a.19.19,0,0,1-.19-.05l-1.15-1.17a.19.19,0,0,1,.09-.35Z" transform="translate(17.33 -64.73)"/><path class="b" d="M162.33,443l1.68,2.39a.28.28,0,0,0,.3.12l8.75-2.05a.29.29,0,0,0,.17-.46l-1.86-2.44a.29.29,0,0,0-.3-.11l-8.57,2.1a.29.29,0,0,0-.17.45Z" transform="translate(17.33 -64.73)"/><path class="b" d="M165,446.24l1.67,2.67a.31.31,0,0,0,.32.13l10.57-2.52a.29.29,0,0,0,.16-.47l-2.09-2.59a.31.31,0,0,0-.3-.1l-10.15,2.44a.29.29,0,0,0-.18.44Z" transform="translate(17.33 -64.73)"/><path class="b" d="M167.37,449.77l2,2.89a.29.29,0,0,0,.31.11l14-3.46a.29.29,0,0,0,.16-.46l-2.25-2.9a.29.29,0,0,0-.3-.1l-13.84,3.46a.3.3,0,0,0-.08.46Z" transform="translate(17.33 -64.73)"/><path class="b" d="M199.42,446.61l2.56,3.08a.3.3,0,0,0,.31.1l30.81-7.68a.32.32,0,0,0,.14-.53l-3.14-3.12a.3.3,0,0,0-.3-.08l-30.22,7.72a.32.32,0,0,0-.16.51Z" transform="translate(17.33 -64.73)"/><path class="b" d="M231.22,438.64l3,3a.26.26,0,0,0,.25.06l6.31-1.69a.25.25,0,0,0,.11-.42l-3.13-3.06a.24.24,0,0,0-.24-.07l-6.21,1.72a.26.26,0,0,0-.09.46Z" transform="translate(17.33 -64.73)"/><path class="b" d="M246.46,436.73l1.38,1.45a.17.17,0,0,0,.18.05l4.67-1.25a.19.19,0,0,0,.08-.32l-1.66-1.56a.18.18,0,0,0-.18-.05l-4.39,1.37a.19.19,0,0,0-.08.31Z" transform="translate(17.33 -64.73)"/><path class="b" d="M250.44,433.62l1.64,1.72a.18.18,0,0,0,.2,0l4.29-1.48a.19.19,0,0,0,.07-.32l-1.64-1.4a.15.15,0,0,0-.17,0l-4.33,1.21a.19.19,0,0,0-.06.27Z" transform="translate(17.33 -64.73)"/><path class="b" d="M253.61,436.59l-1.18-.95a.19.19,0,0,1,0-.33l4.28-1.48a.19.19,0,0,1,.19,0l1.34,1.3a.19.19,0,0,1-.09.31l-4.43,1.15a.18.18,0,0,1-.11,0Z" transform="translate(17.33 -64.73)"/><path class="b" d="M258,434c.37.36,1,1.06,1.26,1.3a.19.19,0,0,0,.19.05l4.45-1.2a.19.19,0,0,0,.08-.32l-1.58-1.43a.21.21,0,0,0-.19,0l-4.13,1.33a.19.19,0,0,0-.08.27Z" transform="translate(17.33 -64.73)"/><path class="b" d="M245.5,431.14l2.38,2.3a.2.2,0,0,0,.18,0l11.48-3a.19.19,0,0,0,.08-.33l-2.79-2.3a.21.21,0,0,0-.17,0l-11.08,3a.19.19,0,0,0-.08.33Z" transform="translate(17.33 -64.73)"/><path class="b" d="M244.72,427.59l2.46,2.19a.17.17,0,0,0,.17,0l8.64-2a.18.18,0,0,0,.07-.32l-2.83-2.37a.16.16,0,0,0-.16,0l-8.27,2.22a.19.19,0,0,0-.08.28Z" transform="translate(17.33 -64.73)"/><path class="b" d="M245.51,423.82l2.33,2.09a.21.21,0,0,0,.17,0l4.43-1a.18.18,0,0,0,.08-.32l-2.76-2.38a.15.15,0,0,0-.17,0l-4,1.29a.18.18,0,0,0-.08.32Z" transform="translate(17.33 -64.73)"/><path class="b" d="M239.44,421.75l2.25,2.05a.18.18,0,0,0,.17,0l7-1.66a.19.19,0,0,0,.07-.33l-2.68-2.25a.18.18,0,0,0-.17,0l-6.61,1.86a.19.19,0,0,0-.03.33Z" transform="translate(17.33 -64.73)"/></g></svg>